<svg xmlns="http://www.w3.org/2000/svg" xmlns:xlink="http://www.w3.org/1999/xlink"><symbol id="icon-fb" viewBox="0 0 12 22">
<path fill="#FFFFFF" d="M12,4V0H8C5.791,0,4,1.791,4,4v4H0v4h4v10h4V12h4V8H8V4H12z"/>
</symbol><symbol id="icon-mail" viewBox="0 0 17 13"><path d="M15.6 11.6H1.4V5.8H0V13h17V5.8h-1.4v5.8zM0 0v2.3l8.5 7.1L17 2.3V0H0zm15.6 1.6L8.5 7.5 1.4 1.6v-.2h14.2v.2z"/></symbol><symbol id="icon-phone" viewBox="0 0 20 20"><path d="M17.9 9.4H9.4v1.2h8.5l-2.1 2.1.9.9 3.1-3.1c.2-.2.2-.6 0-.9l-3.1-3.1-.9.9 2.1 2zm-9.8 10v-6.2c0-.3-.3-.6-.6-.6H3.1c0 .7.6 1.2 1.2 1.2h2.5v5H3.1c-1 .1-1.8-.7-1.9-1.7v-14c0-1 .8-1.8 1.7-1.8h3.9v5H4.4c-.7 0-1.2.6-1.2 1.2h4.4c.3 0 .6-.3.6-.6V.6C8.1.3 7.8 0 7.5 0H3.1C1.5-.1.1 1.2 0 2.9v13.9c-.1 1.7 1.2 3.1 2.9 3.1h4.6c.3.1.6-.2.6-.5z"/></symbol><symbol id="icon-tick" viewBox="0 0 21.1 15.5"><path d="M20.1 0L7.7 13.3 1 6.1 0 7.2l7.6 8.2.1.1L21 1.2l.1-.1z"/></symbol><symbol id="icon-twitter" viewBox="0 0 17 15">
<image overflow="visible" width="17" height="15" xlink:href="t.png">
</image>
<g id="W6EeEF_1_">
	<g>
		<path fill="#FFFFFF" d="M10.95,0.144c1.685-0.496,2.984,0.27,3.577,1.179c0.673-0.231,1.331-0.481,2.011-0.708
			c-0.004,0.861-0.522,1.513-0.857,1.768c0.685,0.17,1.304-0.491,1.304-0.491c-0.169,1-1.006,1.788-1.563,2.024
			c-0.231,6.75-3.175,11.217-10.077,11.082c-0.522,0,0.075,0-0.446,0c-0.41,0-4.164-0.46-4.898-1.887
			c2.271,0.196,3.893-0.422,4.693-1.177c-0.96-0.3-2.679-0.477-2.979-2.95C2.064,9.09,2.279,9.212,2.905,9.103
			C1.705,8.247,0.374,7.53,0.448,5.33c0.285,0.328,1.067,0.536,1.34,0.472c-0.703-0.241-1.97-3.36-0.894-4.952
			c1.818,1.854,3.735,3.606,7.152,3.773C8.254,2.33,9.183,0.793,10.95,0.144z"/>
	</g>
</g>
</symbol><symbol id="icon-youtube" viewBox="0 0 20 16">
<image overflow="visible" enable-background="new    " width="20" height="16" xlink:href="youtube.png">
</image>
<path fill="#FFFFFF" d="M17,0H3C1.35,0,0,1.35,0,3v10c0,1.65,1.35,3,3,3h14c1.65,0,3-1.35,3-3V3C20,1.35,18.65,0,17,0z
	 M6.027,11.998V4.002L15.014,8L6.027,11.998z"/>
</symbol></svg>